<svg xmlns="http://www.w3.org/2000/svg" width="716" height="396.56" viewBox="0 0 716 396.56">
  <g id="Grupo_142977" data-name="Grupo 142977" transform="translate(-443 -913)">
    <path id="Trazado_207396" data-name="Trazado 207396" d="M306.144,654.489c-1.425,0-2.841.039-4.252.1H-4.66a25.245,25.245,0,0,0-21.859,13.067l-46.605,81.989a28.209,28.209,0,0,0-.013,27.683l46.624,82.209A25.243,25.243,0,0,0-4.642,872.626H302.514v-.148c1.2.044,2.414.074,3.63.074,57.028,0,103.258-48.814,103.258-109.031S363.172,654.489,306.144,654.489Z" transform="translate(748.598 259.511)" fill="none" stroke="#1b3f5e" stroke-width="2"/>
    <path id="Trazado_207397" data-name="Trazado 207397" d="M194.545,654.489c-1.01,0-2.013.028-3.013.07H-167.674a17.887,17.887,0,0,0-15.488,9.259l-33.022,58.093a19.987,19.987,0,0,0-.009,19.615l33.035,58.249a17.886,17.886,0,0,0,15.5,9.274H191.973v-.1c.854.031,1.71.052,2.572.052,40.407,0,73.163-34.587,73.163-77.254S234.952,654.489,194.545,654.489Z" transform="translate(890.291 499.511)" fill="none" stroke="#1b3f5e" stroke-width="2"/>
    <g id="Grupo_140956" data-name="Grupo 140956" transform="translate(53 -766.5)">
      <text id="Cuando_se_utiliza_una_ficha_técnica_con_el_fin_de_sacar_el_producto_al_mercado_esta_deberá_contener_información_importante_para_el_consumidor_donde_él_pueda_encontrar_la_composición_el_modo_de_uso_características_principales_etc._esta_debe_de_ser_llam" data-name="Cuando se utiliza una ficha técnica con el fin de sacar el producto al mercado, esta deberá contener información importante para el consumidor, donde él pueda encontrar la composición, el modo de uso, características principales, etc. esta debe de ser llam" transform="translate(692.22 1706)" fill="#12263f" font-size="16" font-family="Roboto-Regular, Roboto"><tspan x="0" y="15">Cuando se utiliza una ficha técnica con el fin de </tspan><tspan x="0" y="39">sacar el producto al mercado, esta deberá contener </tspan><tspan x="0" y="63">información importante para el consumidor, donde él </tspan><tspan x="0" y="87">pueda encontrar la composición, el modo de uso, </tspan><tspan x="0" y="111">características principales, etc. esta debe de ser </tspan><tspan x="0" y="135">llamativas y con datos reales para crear confianza </tspan><tspan x="0" y="159">en el cliente.</tspan></text>
      <g id="Grupo_140953" data-name="Grupo 140953" transform="translate(674 1708)">
        <g id="Grupo_944" data-name="Grupo 944">
          <g id="Grupo_423" data-name="Grupo 423">
            <path id="Trazado_635" data-name="Trazado 635" d="M7.995,6.448,1.77.223a.763.763,0,0,0-1.078,0l0,0L.229.682a.763.763,0,0,0,0,1.078l0,0L5.456,6.991.223,12.224a.763.763,0,0,0,0,1.078l0,0,.459.459a.763.763,0,0,0,1.078,0l0,0L7.995,7.532a.772.772,0,0,0,0-1.086Z" transform="translate(0.002 0.002)" fill="#d84318"/>
          </g>
        </g>
      </g>
    </g>
    <g id="Grupo_140957" data-name="Grupo 140957" transform="translate(53 -768.5)">
      <text id="Esta_ficha_técnica_tendrá_componentes_distintos_esta_tiene_como_finalidad_que_el_producto_sea_debidamente_fabricado_con_los_estándares_y_procesos_previamente_establecidos_y_aprobados_por_gestión_y_control_de_calidad." data-name="Esta ficha técnica tendrá componentes distintos, esta tiene como finalidad que el producto sea debidamente fabricado, con los estándares y procesos previamente establecidos y aprobados por gestión y control de calidad." transform="translate(692.22 1942)" fill="#12263f" font-size="16" font-family="Roboto-Regular, Roboto"><tspan x="0" y="15">Esta ficha técnica tendrá componentes distintos, </tspan><tspan x="0" y="39">esta tiene como finalidad que el producto sea </tspan><tspan x="0" y="63">debidamente fabricado, con los estándares y </tspan><tspan x="0" y="87">procesos previamente establecidos y aprobados </tspan><tspan x="0" y="111">por gestión y control de calidad.</tspan></text>
      <g id="Grupo_140955" data-name="Grupo 140955" transform="translate(674 1944)">
        <g id="Grupo_944-2" data-name="Grupo 944">
          <g id="Grupo_423-2" data-name="Grupo 423">
            <path id="Trazado_635-2" data-name="Trazado 635" d="M7.995,6.448,1.77.223a.763.763,0,0,0-1.078,0l0,0L.229.682a.763.763,0,0,0,0,1.078l0,0L5.456,6.991.223,12.224a.763.763,0,0,0,0,1.078l0,0,.459.459a.763.763,0,0,0,1.078,0l0,0L7.995,7.532a.772.772,0,0,0,0-1.086Z" transform="translate(0.002 0.002)" fill="#d84318"/>
          </g>
        </g>
      </g>
    </g>
    <path id="Trazado_209666" data-name="Trazado 209666" d="M69,0H0" transform="translate(602.5 1023)" fill="none" stroke="#1b3f5e" stroke-width="2"/>
    <path id="Trazado_209667" data-name="Trazado 209667" d="M69,0H0" transform="translate(602.5 1231)" fill="none" stroke="#1b3f5e" stroke-width="2"/>
    <g id="Grupo_127858" data-name="Grupo 127858" transform="translate(443 986.5)">
      <circle id="Elipse_4742" data-name="Elipse 4742" cx="36.354" cy="36.354" r="36.354" transform="translate(0 0.008)" fill="#1b3f5e"/>
      <path id="Trazado_114968" data-name="Trazado 114968" d="M1961.528,190.13h-108.14v72.7h108.146a8.975,8.975,0,0,0,7.7-4.356l16.409-27.338a8.978,8.978,0,0,0,0-9.23l-16.415-27.41A8.975,8.975,0,0,0,1961.528,190.13Z" transform="translate(-1816.906 -190.13)" fill="#1b3f5e"/>
    </g>
    <g id="Grupo_140954" data-name="Grupo 140954" transform="translate(443 1194.5)">
      <circle id="Elipse_4742-2" data-name="Elipse 4742" cx="36.354" cy="36.354" r="36.354" transform="translate(0 0.008)" fill="#1b3f5e"/>
      <path id="Trazado_114968-2" data-name="Trazado 114968" d="M1961.528,190.13h-108.14v72.7h108.146a8.975,8.975,0,0,0,7.7-4.356l16.409-27.338a8.978,8.978,0,0,0,0-9.23l-16.415-27.41A8.975,8.975,0,0,0,1961.528,190.13Z" transform="translate(-1816.906 -190.13)" fill="#1b3f5e"/>
    </g>
    <path id="Trazado_209668" data-name="Trazado 209668" d="M57.891,11.211A4.025,4.025,0,0,1,56.535,14.1a4.76,4.76,0,0,1-3.223,1.055,4.281,4.281,0,0,1-3.441-1.473,6.038,6.038,0,0,1-1.254-4.043v-.7A6.819,6.819,0,0,1,49.2,6.055a4.332,4.332,0,0,1,1.652-1.918,5.164,5.164,0,0,1,5.668.387,4.326,4.326,0,0,1,1.391,2.961H55.563a2.376,2.376,0,0,0-.613-1.6,2.271,2.271,0,0,0-1.605-.5,1.991,1.991,0,0,0-1.754.84,4.707,4.707,0,0,0-.6,2.605V9.7a5.038,5.038,0,0,0,.559,2.7,1.954,1.954,0,0,0,1.762.852,2.314,2.314,0,0,0,1.621-.5,2.241,2.241,0,0,0,.613-1.535ZM58.93,10.7a5.013,5.013,0,0,1,.484-2.242A3.546,3.546,0,0,1,60.809,6.93a4.069,4.069,0,0,1,2.113-.539,3.849,3.849,0,0,1,2.793,1.047,4.2,4.2,0,0,1,1.207,2.844l.016.578a4.418,4.418,0,0,1-1.086,3.121,4.209,4.209,0,0,1-5.832,0A4.5,4.5,0,0,1,58.93,10.8Zm2.258.16a3.16,3.16,0,0,0,.453,1.843,1.628,1.628,0,0,0,2.578.008,3.457,3.457,0,0,0,.461-2.015,3.128,3.128,0,0,0-.461-1.831,1.5,1.5,0,0,0-1.3-.649,1.474,1.474,0,0,0-1.281.646A3.516,3.516,0,0,0,61.188,10.856Zm9.258-4.309.07.945a2.971,2.971,0,0,1,2.43-1.1A2.255,2.255,0,0,1,75.188,7.68a2.9,2.9,0,0,1,2.539-1.289,2.521,2.521,0,0,1,2.047.8,3.681,3.681,0,0,1,.672,2.41V15H78.18V9.6A1.616,1.616,0,0,0,77.9,8.544a1.245,1.245,0,0,0-.992-.333,1.409,1.409,0,0,0-1.406.971L75.508,15H73.25V9.6a1.6,1.6,0,0,0-.289-1.065,1.257,1.257,0,0,0-.984-.329,1.463,1.463,0,0,0-1.391.8V15H68.328V6.547ZM86.07,15.156a4.15,4.15,0,0,1-3.027-1.141,4.054,4.054,0,0,1-1.168-3.039v-.219a5.106,5.106,0,0,1,.492-2.277,3.612,3.612,0,0,1,1.395-1.547,3.914,3.914,0,0,1,2.059-.543,3.508,3.508,0,0,1,2.73,1.094,4.444,4.444,0,0,1,1,3.1v.922H84.164a2.1,2.1,0,0,0,.66,1.328,2,2,0,0,0,1.395.5,2.437,2.437,0,0,0,2.039-.945l1.109,1.242a3.389,3.389,0,0,1-1.375,1.121A4.511,4.511,0,0,1,86.07,15.156Zm-.258-6.945a1.411,1.411,0,0,0-1.09.455,2.357,2.357,0,0,0-.535,1.3h3.141V9.788a1.681,1.681,0,0,0-.406-1.165A1.456,1.456,0,0,0,85.813,8.211Zm9.766.453a6.134,6.134,0,0,0-.812-.062,1.654,1.654,0,0,0-1.68.867V15H90.828V6.547h2.133l.063,1.008a2.092,2.092,0,0,1,1.883-1.164,2.366,2.366,0,0,1,.7.1Zm4.453,4.672a1.481,1.481,0,0,0,1.016-.344,1.2,1.2,0,0,0,.406-.914h2.117a2.9,2.9,0,0,1-.469,1.574,3.093,3.093,0,0,1-1.262,1.109,3.949,3.949,0,0,1-1.77.395A3.67,3.67,0,0,1,97.211,14a4.56,4.56,0,0,1-1.047-3.184v-.148A4.508,4.508,0,0,1,97.2,7.555a3.627,3.627,0,0,1,2.852-1.164,3.555,3.555,0,0,1,2.543.9,3.2,3.2,0,0,1,.973,2.4h-2.117a1.551,1.551,0,0,0-.406-1.072,1.51,1.51,0,0,0-2.223.163,3.333,3.333,0,0,0-.4,1.866v.235a3.375,3.375,0,0,0,.4,1.878A1.377,1.377,0,0,0,100.031,13.336ZM107.242,15h-2.266V6.547h2.266Zm-2.4-10.641a1.112,1.112,0,0,1,.34-.836,1.465,1.465,0,0,1,1.848,0,1.105,1.105,0,0,1,.344.836,1.108,1.108,0,0,1-.348.844,1.448,1.448,0,0,1-1.836,0A1.108,1.108,0,0,1,104.844,4.359ZM114,15a2.507,2.507,0,0,1-.227-.758,2.732,2.732,0,0,1-2.133.914,3,3,0,0,1-2.059-.719,2.312,2.312,0,0,1-.816-1.812,2.389,2.389,0,0,1,1-2.062,4.915,4.915,0,0,1,2.879-.727h1.039V9.352a1.393,1.393,0,0,0-.3-.937,1.183,1.183,0,0,0-.949-.352,1.345,1.345,0,0,0-.895.273.929.929,0,0,0-.324.75h-2.258a2.268,2.268,0,0,1,.453-1.359,3,3,0,0,1,1.281-.98,4.669,4.669,0,0,1,1.859-.355,3.689,3.689,0,0,1,2.48.785,2.747,2.747,0,0,1,.918,2.207v3.664a4.041,4.041,0,0,0,.336,1.82V15Zm-1.867-1.57a1.945,1.945,0,0,0,.922-.223,1.462,1.462,0,0,0,.625-.6V11.156h-.844q-1.7,0-1.8,1.172l-.008.133a.9.9,0,0,0,.3.7A1.153,1.153,0,0,0,112.133,13.43Zm7.93,1.57H117.8V3h2.266Z" transform="translate(444 1013.5)" fill="#fff"/>
    <path id="Trazado_209669" data-name="Trazado 209669" d="M46.945,10.992V15H44.6V3.625h4.438a5.134,5.134,0,0,1,2.254.469,3.454,3.454,0,0,1,1.5,1.332,3.714,3.714,0,0,1,.523,1.965,3.266,3.266,0,0,1-1.145,2.637A4.767,4.767,0,0,1,49,10.992Zm0-1.9h2.094a2.059,2.059,0,0,0,1.418-.437,1.591,1.591,0,0,0,.488-1.25,1.876,1.876,0,0,0-.492-1.352,1.839,1.839,0,0,0-1.359-.531H46.945Zm12.578-.43a6.134,6.134,0,0,0-.812-.062,1.654,1.654,0,0,0-1.68.867V15H54.773V6.547h2.133l.063,1.008a2.092,2.092,0,0,1,1.883-1.164,2.366,2.366,0,0,1,.7.1Zm.453,2.031a5.013,5.013,0,0,1,.484-2.242A3.546,3.546,0,0,1,61.855,6.93a4.069,4.069,0,0,1,2.113-.539,3.849,3.849,0,0,1,2.793,1.047,4.2,4.2,0,0,1,1.207,2.844l.016.578A4.418,4.418,0,0,1,66.9,13.98a4.209,4.209,0,0,1-5.832,0,4.5,4.5,0,0,1-1.09-3.187Zm2.258.16a3.16,3.16,0,0,0,.453,1.843,1.628,1.628,0,0,0,2.578.008,3.457,3.457,0,0,0,.461-2.015,3.128,3.128,0,0,0-.461-1.831,1.5,1.5,0,0,0-1.3-.649,1.474,1.474,0,0,0-1.281.646A3.516,3.516,0,0,0,62.234,10.856Zm6.789-.145a5.094,5.094,0,0,1,.887-3.148,2.877,2.877,0,0,1,2.426-1.172,2.589,2.589,0,0,1,2.039.922V3h2.266V15H74.6l-.109-.9a2.657,2.657,0,0,1-2.172,1.055,2.869,2.869,0,0,1-2.395-1.176A5.258,5.258,0,0,1,69.023,10.711Zm2.258.161A3.355,3.355,0,0,0,71.7,12.7a1.348,1.348,0,0,0,1.2.636,1.51,1.51,0,0,0,1.477-.887V9.1a1.489,1.489,0,0,0-1.461-.887Q71.281,8.211,71.281,10.872Zm12.172,3.269a2.831,2.831,0,0,1-2.312,1.016,2.67,2.67,0,0,1-2.074-.781,3.335,3.335,0,0,1-.73-2.289V6.547h2.258v5.467q0,1.322,1.2,1.322a1.63,1.63,0,0,0,1.578-.8V6.547h2.266V15H83.516Zm7.406-.8a1.481,1.481,0,0,0,1.016-.344,1.2,1.2,0,0,0,.406-.914H94.4a2.9,2.9,0,0,1-.469,1.574,3.093,3.093,0,0,1-1.262,1.109,3.949,3.949,0,0,1-1.77.395A3.67,3.67,0,0,1,88.039,14a4.56,4.56,0,0,1-1.047-3.184v-.148a4.508,4.508,0,0,1,1.039-3.117,3.627,3.627,0,0,1,2.852-1.164,3.555,3.555,0,0,1,2.543.9A3.2,3.2,0,0,1,94.4,9.7H92.281a1.551,1.551,0,0,0-.406-1.072,1.51,1.51,0,0,0-2.223.163,3.333,3.333,0,0,0-.4,1.866v.235a3.375,3.375,0,0,0,.4,1.878A1.377,1.377,0,0,0,90.859,13.336Zm8.344,0a1.481,1.481,0,0,0,1.016-.344,1.2,1.2,0,0,0,.406-.914h2.117a2.9,2.9,0,0,1-.469,1.574,3.093,3.093,0,0,1-1.262,1.109,3.949,3.949,0,0,1-1.77.395A3.67,3.67,0,0,1,96.383,14a4.56,4.56,0,0,1-1.047-3.184v-.148a4.508,4.508,0,0,1,1.039-3.117,3.627,3.627,0,0,1,2.852-1.164,3.555,3.555,0,0,1,2.543.9,3.2,3.2,0,0,1,.973,2.4h-2.117a1.551,1.551,0,0,0-.406-1.072A1.51,1.51,0,0,0,98,8.786a3.333,3.333,0,0,0-.4,1.866v.235a3.375,3.375,0,0,0,.4,1.878A1.377,1.377,0,0,0,99.2,13.336ZM106.414,15h-2.266V6.547h2.266Zm-2.4-10.641a1.112,1.112,0,0,1,.34-.836,1.465,1.465,0,0,1,1.848,0,1.105,1.105,0,0,1,.344.836,1.108,1.108,0,0,1-.348.844,1.448,1.448,0,0,1-1.836,0A1.108,1.108,0,0,1,104.016,4.359Zm3.906,6.336a5.013,5.013,0,0,1,.484-2.242A3.546,3.546,0,0,1,109.8,6.93a4.069,4.069,0,0,1,2.113-.539,3.849,3.849,0,0,1,2.793,1.047,4.2,4.2,0,0,1,1.207,2.844l.016.578a4.418,4.418,0,0,1-1.086,3.121,4.209,4.209,0,0,1-5.832,0,4.5,4.5,0,0,1-1.09-3.187Zm2.258.16a3.16,3.16,0,0,0,.453,1.843,1.628,1.628,0,0,0,2.578.008,3.457,3.457,0,0,0,.461-2.015,3.128,3.128,0,0,0-.461-1.831,1.5,1.5,0,0,0-1.3-.649,1.474,1.474,0,0,0-1.281.646A3.516,3.516,0,0,0,110.18,10.856ZM112.359,3h2.461l-2.164,2.422H110.82ZM119.4,6.547l.07.977a2.951,2.951,0,0,1,2.43-1.133,2.453,2.453,0,0,1,2,.789,3.682,3.682,0,0,1,.672,2.359V15h-2.258V9.581A1.47,1.47,0,0,0,122,8.536a1.4,1.4,0,0,0-1.039-.325,1.553,1.553,0,0,0-1.43.814V15h-2.258V6.547Z" transform="translate(444 1221.5)" fill="#fff"/>
  </g>
</svg>
