<svg xmlns="http://www.w3.org/2000/svg" width="46.824" height="61.042" viewBox="0 0 46.824 61.042">
  <g id="Grupo_135288" data-name="Grupo 135288" transform="translate(0 0.001)">
    <g id="Grupo_133581" data-name="Grupo 133581">
      <g id="Grupo_133568" data-name="Grupo 133568">
        <g id="Grupo_133567" data-name="Grupo 133567" style="isolation: isolate">
          <g id="Grupo_133563" data-name="Grupo 133563" transform="translate(16.068)">
            <path id="Trazado_196673" data-name="Trazado 196673" d="M412.694,743.709l-1.174-.682,25.61-14.786,1.174.682Z" transform="translate(-411.52 -728.241)" fill="#ffd438"/>
          </g>
          <g id="Grupo_133564" data-name="Grupo 133564" transform="translate(0 20.21)">
            <path id="Trazado_196674" data-name="Trazado 196674" d="M400.749,782l-1.174-.683-.107-37.916,1.174.682Z" transform="translate(-399.468 -743.4)" fill="#ffb700"/>
          </g>
          <g id="Grupo_133565" data-name="Grupo 133565" transform="translate(0 11.908)">
            <path id="Trazado_196675" data-name="Trazado 196675" d="M400.642,746.157l-1.174-.682,14.38-8.3,1.174.682Z" transform="translate(-399.468 -737.173)" fill="#ffd438"/>
          </g>
          <g id="Grupo_133566" data-name="Grupo 133566" transform="translate(1.174 0.682)">
            <path id="Trazado_196676" data-name="Trazado 196676" d="M414.728,740.661l1.688,2.878,25.61-14.786.1,34.069-41.668,24.057-.107-37.917Z" transform="translate(-400.348 -728.753)" fill="#fbc70e"/>
          </g>
        </g>
      </g>
      <g id="Grupo_133573" data-name="Grupo 133573" transform="translate(1.989 3.356)">
        <g id="Grupo_133572" data-name="Grupo 133572" style="isolation: isolate">
          <g id="Grupo_133569" data-name="Grupo 133569" transform="translate(0 22.991)">
            <path id="Trazado_196677" data-name="Trazado 196677" d="M404.18,781.02l-3.132-1.82L400.96,748l3.132,1.82Z" transform="translate(-400.96 -748.003)" fill="#d4e2fc"/>
          </g>
          <g id="Grupo_133570" data-name="Grupo 133570">
            <path id="Trazado_196678" data-name="Trazado 196678" d="M404.091,755.568l-3.132-1.82,39.83-22.991,3.132,1.82Z" transform="translate(-400.96 -730.758)" fill="#ecf5fe"/>
          </g>
          <g id="Grupo_133571" data-name="Grupo 133571" transform="translate(3.132 1.82)">
            <path id="Trazado_196679" data-name="Trazado 196679" d="M443.139,732.123l.088,31.2L403.4,786.311l-.089-31.2Z" transform="translate(-403.309 -732.123)" fill="#b5b3c4"/>
          </g>
        </g>
      </g>
      <g id="Grupo_133574" data-name="Grupo 133574" transform="translate(0.107 54.775)">
        <path id="Trazado_196680" data-name="Trazado 196680" d="M400.713,769.327v1.2h-.02v.493h-1.145v.739l5.05,2.914.008-3.013Z" transform="translate(-399.548 -769.327)" fill="#fbc70e"/>
      </g>
      <g id="Grupo_133579" data-name="Grupo 133579" transform="translate(3.893 4.611)">
        <g id="Grupo_133578" data-name="Grupo 133578" style="isolation: isolate">
          <g id="Grupo_133575" data-name="Grupo 133575" transform="translate(0 24.057)">
            <path id="Trazado_196681" data-name="Trazado 196681" d="M403.652,782.117l-1.174-.682-.09-31.69,1.174.682Z" transform="translate(-402.387 -749.744)" fill="#ffb700"/>
          </g>
          <g id="Grupo_133576" data-name="Grupo 133576">
            <path id="Trazado_196682" data-name="Trazado 196682" d="M403.562,756.439l-1.174-.682L444.055,731.7l1.174.682Z" transform="translate(-402.387 -731.7)" fill="#ffd438"/>
          </g>
          <g id="Grupo_133577" data-name="Grupo 133577" transform="translate(1.174 0.682)">
            <path id="Trazado_196683" data-name="Trazado 196683" d="M444.936,732.212l.09,31.69-41.668,24.057-.09-31.69Z" transform="translate(-403.268 -732.212)" fill="#fbc70e"/>
          </g>
        </g>
      </g>
      <g id="Grupo_133580" data-name="Grupo 133580" transform="translate(0.107 54.998)">
        <path id="Trazado_196684" data-name="Trazado 196684" d="M404.6,775.537l-5.05-2.914v-3.129l5.057,3.03Z" transform="translate(-399.548 -769.494)" fill="#ffb700"/>
      </g>
    </g>
    <g id="Grupo_133590" data-name="Grupo 133590" transform="translate(16.637 21.452)">
      <g id="Grupo_133585" data-name="Grupo 133585" transform="translate(1.977)">
        <g id="Grupo_133582" data-name="Grupo 133582">
          <path id="Trazado_196685" data-name="Trazado 196685" d="M428.5,749.969a1.891,1.891,0,0,0,.369-.283,2.305,2.305,0,0,0,.727-2.109c-.932-2.66-3.174-3.782-6-3-4.13,1.141-8.366,5.958-10.071,11.453-.255.823.012,1.454.6,1.412a2.161,2.161,0,0,0,1.52-1.566c1.248-4.021,4.347-7.546,7.371-8.38a3.336,3.336,0,0,1,4.39,2.2C427.567,750.155,428.016,750.247,428.5,749.969Z" transform="translate(-413.43 -744.332)" fill="#ecf5fe"/>
        </g>
        <g id="Grupo_133584" data-name="Grupo 133584" transform="translate(11.941 1.848)">
          <g id="Grupo_133583" data-name="Grupo 133583">
            <path id="Trazado_196686" data-name="Trazado 196686" d="M428.146,745.718l-2.953,7.414-2.806-4.187Z" transform="translate(-422.386 -745.718)" fill="#ecf5fe"/>
          </g>
        </g>
      </g>
      <g id="Grupo_133589" data-name="Grupo 133589" transform="translate(0 10.922)">
        <g id="Grupo_133586" data-name="Grupo 133586" transform="translate(1.467)">
          <path id="Trazado_196687" data-name="Trazado 196687" d="M421.284,763.867a19.1,19.1,0,0,0,7.7-9.836c.292-.824.068-1.5-.5-1.506s-1.264.651-1.556,1.474c-1.336,3.777-4.365,7.087-7.2,7.87a3.338,3.338,0,0,1-4.421-2.289c-.195-.589-.844-.6-1.452-.027a2.321,2.321,0,0,0-.749,2.109c.9,2.752,3.162,3.92,6.039,3.125A9.243,9.243,0,0,0,421.284,763.867Z" transform="translate(-413.048 -752.524)" fill="#ecf5fe"/>
        </g>
        <g id="Grupo_133588" data-name="Grupo 133588" transform="translate(0 3.373)">
          <g id="Grupo_133587" data-name="Grupo 133587">
            <path id="Trazado_196688" data-name="Trazado 196688" d="M411.947,762.488l2.514-7.434,3.231,3.64Z" transform="translate(-411.947 -755.054)" fill="#ecf5fe"/>
          </g>
        </g>
      </g>
    </g>
  </g>
</svg>
