<svg id="Grupo_135289" data-name="Grupo 135289" xmlns="http://www.w3.org/2000/svg" xmlns:xlink="http://www.w3.org/1999/xlink" width="49.1" height="49.816" viewBox="0 0 49.1 49.816">
  <defs>
    <clipPath id="clip-path">
      <path id="Trazado_196652" data-name="Trazado 196652" d="M540.273,860.089v5.55c-.009,3.616-2.386,7.227-7.135,9.985-9.556,5.554-25.1,5.554-34.716,0-4.841-2.8-7.259-6.464-7.248-10.127v-5.55c-.011,3.662,2.408,7.331,7.248,10.127,9.619,5.553,25.159,5.553,34.716,0C537.887,867.316,540.264,863.7,540.273,860.089Z" transform="translate(-491.174 -859.949)" fill="#d4e2fc"/>
    </clipPath>
    <clipPath id="clip-path-2">
      <path id="Trazado_196660" data-name="Trazado 196660" d="M539.429,852.674l-.023,8.007c-.011,3.516-2.321,7.026-6.938,9.708-9.292,5.4-24.4,5.4-33.753,0-4.707-2.718-7.058-6.284-7.048-9.847l.023-8.006c-.009,3.561,2.341,7.128,7.048,9.845,9.352,5.4,24.461,5.4,33.753,0C537.108,859.7,539.418,856.189,539.429,852.674Z" transform="translate(-491.667 -852.538)" fill="#1b3f5e"/>
    </clipPath>
    <clipPath id="clip-path-3">
      <path id="Trazado_196668" data-name="Trazado 196668" d="M540.273,848.218v5.55c-.009,3.616-2.386,7.227-7.135,9.985-9.556,5.554-25.1,5.554-34.716,0-4.841-2.794-7.259-6.463-7.248-10.125v-5.55c-.011,3.662,2.408,7.331,7.248,10.125,9.619,5.554,25.159,5.554,34.716,0C537.887,855.445,540.264,851.834,540.273,848.218Z" transform="translate(-491.174 -848.078)" fill="#d4e2fc"/>
    </clipPath>
  </defs>
  <g id="Grupo_133547" data-name="Grupo 133547" transform="translate(0 15.827)">
    <g id="Grupo_133546" data-name="Grupo 133546" style="isolation: isolate">
      <g id="Grupo_133544" data-name="Grupo 133544" transform="translate(0 14.149)">
        <path id="Trazado_196646" data-name="Trazado 196646" d="M540.273,860.089v5.55c-.009,3.616-2.386,7.227-7.135,9.985-9.556,5.554-25.1,5.554-34.716,0-4.841-2.8-7.259-6.464-7.248-10.127v-5.55c-.011,3.662,2.408,7.331,7.248,10.127,9.619,5.553,25.159,5.553,34.716,0C537.887,867.316,540.264,863.7,540.273,860.089Z" transform="translate(-491.174 -859.949)" fill="#d4e2fc"/>
        <g id="Grupo_133543" data-name="Grupo 133543" clip-path="url(#clip-path)">
          <g id="Grupo_133542" data-name="Grupo 133542" style="isolation: isolate">
            <path id="Trazado_196647" data-name="Trazado 196647" d="M531.348,860.054v5.55c-.009,3.616-2.386,7.227-7.135,9.985a28.368,28.368,0,0,1-6.25,2.636v-5.55a28.43,28.43,0,0,0,6.25-2.634c4.749-2.76,7.126-6.371,7.135-9.987Z" transform="translate(-482.249 -859.914)" fill="#becef9"/>
            <path id="Trazado_196648" data-name="Trazado 196648" d="M520.595,869.521v5.55a39.475,39.475,0,0,1-10.531,1.527v-5.55a39.475,39.475,0,0,0,10.531-1.527Z" transform="translate(-484.881 -856.76)" fill="#cddcfb"/>
            <path id="Trazado_196649" data-name="Trazado 196649" d="M514.723,871.812v5.55c-6.464.084-12.984-1.3-17.935-4.161q-.362-.21-.707-.425v-5.55q.344.216.707.425c4.951,2.858,11.471,4.245,17.935,4.161Z" transform="translate(-489.539 -857.525)" fill="#dae8fd"/>
            <path id="Trazado_196650" data-name="Trazado 196650" d="M497.44,868.588v5.55a15.034,15.034,0,0,1-5.438-5.45v-5.55a15.035,15.035,0,0,0,5.438,5.45Z" transform="translate(-490.898 -858.887)" fill="#cddcfb"/>
            <path id="Trazado_196651" data-name="Trazado 196651" d="M492.278,864.2v5.55a8.906,8.906,0,0,1-1.1-4.252v-5.55a8.9,8.9,0,0,0,1.1,4.252Z" transform="translate(-491.174 -859.949)" fill="#cddcfb"/>
          </g>
        </g>
      </g>
      <g id="Grupo_133545" data-name="Grupo 133545">
        <path id="Trazado_196653" data-name="Trazado 196653" d="M533.027,853.5c9.619,5.554,9.667,14.557.111,20.111s-25.1,5.553-34.716,0-9.672-14.557-.115-20.111S523.409,847.948,533.027,853.5Z" transform="translate(-491.174 -849.336)" fill="#e6f1fe"/>
      </g>
    </g>
  </g>
  <g id="Grupo_133553" data-name="Grupo 133553" transform="translate(0.657 6.339)">
    <g id="Grupo_133552" data-name="Grupo 133552" style="isolation: isolate">
      <g id="Grupo_133550" data-name="Grupo 133550" transform="translate(0 13.757)">
        <path id="Trazado_196654" data-name="Trazado 196654" d="M539.429,852.674l-.023,8.007c-.011,3.516-2.321,7.026-6.938,9.708-9.292,5.4-24.4,5.4-33.753,0-4.707-2.718-7.058-6.284-7.048-9.847l.023-8.006c-.009,3.561,2.341,7.128,7.048,9.845,9.352,5.4,24.461,5.4,33.753,0C537.108,859.7,539.418,856.189,539.429,852.674Z" transform="translate(-491.667 -852.538)" fill="#1b3f5e"/>
        <g id="Grupo_133549" data-name="Grupo 133549" clip-path="url(#clip-path-2)">
          <g id="Grupo_133548" data-name="Grupo 133548" style="isolation: isolate">
            <path id="Trazado_196655" data-name="Trazado 196655" d="M530.751,852.64l-.023,8.007c-.011,3.516-2.321,7.026-6.938,9.708a27.611,27.611,0,0,1-6.077,2.562l.023-8.007a27.609,27.609,0,0,0,6.077-2.561c4.617-2.684,6.927-6.194,6.938-9.709Z" transform="translate(-482.989 -852.504)" fill="#1b3f5e"/>
            <path id="Trazado_196656" data-name="Trazado 196656" d="M520.3,861.844l-.023,8.007a38.385,38.385,0,0,1-10.24,1.484l.023-8.006a38.38,38.38,0,0,0,10.24-1.485Z" transform="translate(-485.548 -849.438)" fill="#1b3f5e"/>
            <path id="Trazado_196657" data-name="Trazado 196657" d="M514.585,864.073l-.023,8.006c-6.286.083-12.624-1.267-17.436-4.045q-.354-.2-.688-.415l.023-8.006q.334.21.688.413c4.813,2.778,11.152,4.128,17.436,4.046Z" transform="translate(-490.077 -850.181)" fill="#1b3f5e"/>
            <path id="Trazado_196658" data-name="Trazado 196658" d="M497.782,860.937l-.023,8.006a14.606,14.606,0,0,1-5.287-5.3l.024-8.006a14.59,14.59,0,0,0,5.286,5.3Z" transform="translate(-491.399 -851.505)" fill="#1b3f5e"/>
            <path id="Trazado_196659" data-name="Trazado 196659" d="M492.764,856.672l-.024,8.006a8.668,8.668,0,0,1-1.073-4.134l.023-8.006a8.659,8.659,0,0,0,1.075,4.134Z" transform="translate(-491.667 -852.538)" fill="#1b3f5e"/>
          </g>
        </g>
      </g>
      <g id="Grupo_133551" data-name="Grupo 133551" transform="translate(0.023)">
        <path id="Trazado_196661" data-name="Trazado 196661" d="M532.377,846.269c9.352,5.4,9.4,14.153.108,19.552s-24.4,5.4-33.753,0-9.4-14.153-.112-19.552S523.025,840.869,532.377,846.269Z" transform="translate(-491.685 -842.219)" fill="#1b3f5e"/>
      </g>
    </g>
  </g>
  <g id="Grupo_133561" data-name="Grupo 133561">
    <g id="Grupo_133560" data-name="Grupo 133560" style="isolation: isolate">
      <g id="Grupo_133556" data-name="Grupo 133556" transform="translate(0 14.15)">
        <path id="Trazado_196662" data-name="Trazado 196662" d="M540.273,848.218v5.55c-.009,3.616-2.386,7.227-7.135,9.985-9.556,5.554-25.1,5.554-34.716,0-4.841-2.794-7.259-6.463-7.248-10.125v-5.55c-.011,3.662,2.408,7.331,7.248,10.125,9.619,5.554,25.159,5.554,34.716,0C537.887,855.445,540.264,851.834,540.273,848.218Z" transform="translate(-491.174 -848.078)" fill="#d4e2fc"/>
        <g id="Grupo_133555" data-name="Grupo 133555" clip-path="url(#clip-path-3)">
          <g id="Grupo_133554" data-name="Grupo 133554" style="isolation: isolate">
            <path id="Trazado_196663" data-name="Trazado 196663" d="M531.348,848.183v5.55c-.009,3.616-2.386,7.227-7.135,9.985a28.363,28.363,0,0,1-6.25,2.634V860.8a28.369,28.369,0,0,0,6.25-2.634c4.749-2.758,7.126-6.37,7.135-9.985Z" transform="translate(-482.249 -848.043)" fill="#becef9"/>
            <path id="Trazado_196664" data-name="Trazado 196664" d="M520.595,857.649v5.55a39.483,39.483,0,0,1-10.531,1.528v-5.55a39.424,39.424,0,0,0,10.531-1.528Z" transform="translate(-484.881 -844.889)" fill="#cddcfb"/>
            <path id="Trazado_196665" data-name="Trazado 196665" d="M514.723,859.941v5.55c-6.464.084-12.984-1.3-17.935-4.162-.241-.139-.477-.281-.707-.425v-5.55c.229.144.465.286.707.425,4.951,2.858,11.471,4.246,17.935,4.162Z" transform="translate(-489.539 -845.654)" fill="#dae8fd"/>
            <path id="Trazado_196666" data-name="Trazado 196666" d="M497.44,856.716v5.55A15.023,15.023,0,0,1,492,856.817v-5.55a15.023,15.023,0,0,0,5.438,5.449Z" transform="translate(-490.898 -847.015)" fill="#cddcfb"/>
            <path id="Trazado_196667" data-name="Trazado 196667" d="M492.278,852.33v5.55a8.913,8.913,0,0,1-1.1-4.251v-5.55a8.909,8.909,0,0,0,1.1,4.251Z" transform="translate(-491.174 -848.078)" fill="#cddcfb"/>
          </g>
        </g>
      </g>
      <g id="Grupo_133559" data-name="Grupo 133559">
        <path id="Trazado_196669" data-name="Trazado 196669" d="M533.027,841.63c9.619,5.554,9.667,14.557.111,20.109s-25.1,5.554-34.716,0-9.672-14.555-.115-20.109S523.409,836.076,533.027,841.63Z" transform="translate(-491.174 -837.464)" fill="#e6f1fe"/>
        <path id="Trazado_196670" data-name="Trazado 196670" d="M530.08,843.141c8.41,4.262,8.452,11.173.1,15.437s-21.941,4.262-30.351,0-8.456-11.175-.1-15.437S521.671,838.878,530.08,843.141Z" transform="translate(-490.402 -836.639)" fill="#dae8fd"/>
        <g id="Grupo_133557" data-name="Grupo 133557" transform="translate(2.478 2.478)">
          <path id="Trazado_196671" data-name="Trazado 196671" d="M531.169,843.159a32.819,32.819,0,0,0-16.146-3.836c-6.038,0-11.9,1.4-16.09,3.832-3.754,2.18-5.9,5.05-5.9,7.871,0,.137.008.275.019.412.2,2.717,2.36,5.443,5.989,7.539a32.873,32.873,0,0,0,16.143,3.832c6.038,0,11.9-1.4,16.09-3.832,3.572-2.069,5.694-4.773,5.885-7.459a3.606,3.606,0,0,0,.02-.416C537.174,848.254,534.982,845.357,531.169,843.159Zm4.1,8.773c0,2.124-1.8,4.391-4.955,6.226-3.908,2.268-9.423,3.572-15.133,3.572a30.944,30.944,0,0,1-15.19-3.579c-3.209-1.853-5.05-4.152-5.054-6.3a3.523,3.523,0,0,1,.023-.408v-.011a3.407,3.407,0,0,1-.023-.4c0-2.126,1.8-4.4,4.951-6.225,3.906-2.268,9.423-3.572,15.133-3.572a30.925,30.925,0,0,1,15.194,3.578c3.209,1.853,5.05,4.147,5.054,6.3a3.85,3.85,0,0,1-.023.408v.015A3.716,3.716,0,0,1,535.272,851.932Z" transform="translate(-493.033 -839.323)" fill="#98a4e0"/>
        </g>
        <g id="Grupo_133558" data-name="Grupo 133558" transform="translate(2.497 3.304)">
          <path id="Trazado_196672" data-name="Trazado 196672" d="M531.165,843.775a32.863,32.863,0,0,0-16.146-3.831c-6.038,0-11.9,1.4-16.09,3.828-3.572,2.074-5.691,4.777-5.882,7.46.2,2.717,2.36,5.443,5.989,7.539a32.873,32.873,0,0,0,16.143,3.832c6.038,0,11.9-1.4,16.09-3.832,3.572-2.069,5.694-4.773,5.885-7.459C536.956,848.6,534.794,845.872,531.165,843.775Zm-.853,14.177c-3.908,2.268-9.423,3.572-15.133,3.572a30.944,30.944,0,0,1-15.19-3.579c-3.209-1.853-5.05-4.152-5.054-6.3a3.523,3.523,0,0,1,.023-.408v-.011a3.407,3.407,0,0,1-.023-.4c0-2.126,1.8-4.4,4.951-6.225,3.906-2.268,9.423-3.572,15.133-3.572a30.925,30.925,0,0,1,15.194,3.578c3.209,1.853,5.05,4.147,5.054,6.3a3.849,3.849,0,0,1-.023.408v.015a3.716,3.716,0,0,1,.023.4C535.271,853.849,533.463,856.117,530.312,857.951Z" transform="translate(-493.047 -839.943)" fill="#1b3f5e"/>
        </g>
      </g>
    </g>
  </g>
</svg>
