<svg xmlns="http://www.w3.org/2000/svg" xmlns:xlink="http://www.w3.org/1999/xlink" width="50.055" height="82.42" viewBox="0 0 50.055 82.42">
  <defs>
    <clipPath id="clip-path">
      <path id="Trazado_196593" data-name="Trazado 196593" d="M729.715,820.734v5.658c-.011,3.686-2.434,7.367-7.275,10.18-9.741,5.662-25.583,5.662-35.39,0-4.934-2.849-7.4-6.589-7.388-10.323v-5.658c-.011,3.734,2.454,7.474,7.388,10.324,9.805,5.661,25.649,5.661,35.39,0C727.28,828.1,729.7,824.421,729.715,820.734Z" transform="translate(-679.661 -820.591)" fill="#d4e2fc"/>
    </clipPath>
    <clipPath id="clip-path-2">
      <path id="Trazado_196601" data-name="Trazado 196601" d="M728.853,813.393l-.023,8.162c-.011,3.585-2.366,7.163-7.072,9.9-9.472,5.5-24.876,5.5-34.41,0-4.8-2.77-7.194-6.407-7.184-10.038l.024-8.162c-.011,3.63,2.386,7.266,7.184,10.036,9.533,5.5,24.937,5.5,34.409,0C726.486,820.556,728.842,816.976,728.853,813.393Z" transform="translate(-680.163 -813.254)" fill="#1b3f5e"/>
    </clipPath>
    <clipPath id="clip-path-3">
      <path id="Trazado_196609" data-name="Trazado 196609" d="M729.715,808.85v5.658c-.011,3.686-2.434,7.367-7.275,10.18-9.741,5.662-25.583,5.662-35.39,0-4.934-2.849-7.4-6.588-7.388-10.323v-5.658c-.011,3.734,2.454,7.474,7.388,10.323,9.805,5.662,25.649,5.662,35.39,0C727.28,816.217,729.7,812.536,729.715,808.85Z" transform="translate(-679.661 -808.707)" fill="#d4e2fc"/>
    </clipPath>
    <clipPath id="clip-path-4">
      <path id="Trazado_196617" data-name="Trazado 196617" d="M728.853,801.548l-.023,8.163c-.011,3.583-2.366,7.163-7.072,9.9-9.472,5.5-24.876,5.5-34.41,0-4.8-2.77-7.194-6.406-7.184-10.037l.024-8.162c-.011,3.63,2.386,7.267,7.184,10.037,9.533,5.5,24.937,5.5,34.409,0C726.486,808.711,728.842,805.133,728.853,801.548Z" transform="translate(-680.163 -801.409)" fill="#1b3f5e"/>
    </clipPath>
    <clipPath id="clip-path-5">
      <path id="Trazado_196625" data-name="Trazado 196625" d="M729.715,797v5.658c-.011,3.686-2.434,7.368-7.275,10.18-9.741,5.662-25.583,5.662-35.39,0-4.934-2.849-7.4-6.588-7.388-10.323v-5.658c-.011,3.734,2.454,7.474,7.388,10.324,9.805,5.661,25.649,5.661,35.39,0C727.28,804.373,729.7,800.692,729.715,797Z" transform="translate(-679.661 -796.862)" fill="#d4e2fc"/>
    </clipPath>
    <clipPath id="clip-path-6">
      <path id="Trazado_196633" data-name="Trazado 196633" d="M728.853,789.446l-.023,8.163c-.011,3.584-2.366,7.163-7.072,9.9-9.472,5.5-24.876,5.5-34.41,0-4.8-2.77-7.194-6.406-7.184-10.037l.024-8.162c-.011,3.63,2.386,7.267,7.184,10.037,9.533,5.5,24.937,5.5,34.409,0C726.486,796.609,728.842,793.031,728.853,789.446Z" transform="translate(-680.163 -789.307)" fill="#1b3f5e"/>
    </clipPath>
    <clipPath id="clip-path-7">
      <path id="Trazado_196641" data-name="Trazado 196641" d="M729.715,784.9v5.658c-.011,3.686-2.434,7.367-7.275,10.18-9.741,5.662-25.583,5.662-35.39,0-4.934-2.849-7.4-6.589-7.388-10.323V784.76c-.011,3.734,2.454,7.474,7.388,10.324,9.805,5.661,25.649,5.661,35.39,0C727.28,792.271,729.7,788.59,729.715,784.9Z" transform="translate(-679.661 -784.76)" fill="#d4e2fc"/>
    </clipPath>
  </defs>
  <g id="Grupo_135290" data-name="Grupo 135290" transform="translate(0.001)">
    <g id="Grupo_133502" data-name="Grupo 133502" transform="translate(0 47.769)">
      <g id="Grupo_133501" data-name="Grupo 133501" style="isolation: isolate">
        <g id="Grupo_133499" data-name="Grupo 133499" transform="translate(0 14.423)">
          <path id="Trazado_196587" data-name="Trazado 196587" d="M729.715,820.734v5.658c-.011,3.686-2.434,7.367-7.275,10.18-9.741,5.662-25.583,5.662-35.39,0-4.934-2.849-7.4-6.589-7.388-10.323v-5.658c-.011,3.734,2.454,7.474,7.388,10.324,9.805,5.661,25.649,5.661,35.39,0C727.28,828.1,729.7,824.421,729.715,820.734Z" transform="translate(-679.661 -820.591)" fill="#d4e2fc"/>
          <g id="Grupo_133498" data-name="Grupo 133498" clip-path="url(#clip-path)">
            <g id="Grupo_133497" data-name="Grupo 133497" style="isolation: isolate">
              <path id="Trazado_196588" data-name="Trazado 196588" d="M720.616,820.7v5.658c-.011,3.686-2.434,7.367-7.275,10.18a28.945,28.945,0,0,1-6.37,2.686v-5.658a28.869,28.869,0,0,0,6.37-2.686c4.841-2.812,7.264-6.493,7.275-10.18Z" transform="translate(-670.562 -820.555)" fill="#becef9"/>
              <path id="Trazado_196589" data-name="Trazado 196589" d="M709.654,830.349v5.658a40.231,40.231,0,0,1-10.737,1.556v-5.657a40.281,40.281,0,0,0,10.737-1.557Z" transform="translate(-673.246 -817.34)" fill="#cddcfb"/>
              <path id="Trazado_196590" data-name="Trazado 196590" d="M703.666,832.686v5.657c-6.59.087-13.236-1.328-18.283-4.242-.247-.141-.487-.287-.721-.433v-5.658q.352.22.721.435c5.047,2.913,11.693,4.327,18.283,4.242Z" transform="translate(-677.995 -818.12)" fill="#dae8fd"/>
              <path id="Trazado_196591" data-name="Trazado 196591" d="M686.047,829.4v5.658a15.315,15.315,0,0,1-5.542-5.555v-5.658a15.314,15.314,0,0,0,5.542,5.555Z" transform="translate(-679.38 -819.508)" fill="#cddcfb"/>
              <path id="Trazado_196592" data-name="Trazado 196592" d="M680.786,824.925v5.658a9.078,9.078,0,0,1-1.125-4.334v-5.658a9.078,9.078,0,0,0,1.125,4.334Z" transform="translate(-679.661 -820.591)" fill="#cddcfb"/>
            </g>
          </g>
        </g>
        <g id="Grupo_133500" data-name="Grupo 133500">
          <path id="Trazado_196594" data-name="Trazado 196594" d="M722.328,814.018c9.806,5.661,9.855,14.839.112,20.5s-25.585,5.662-35.39,0-9.859-14.839-.117-20.5S712.521,808.356,722.328,814.018Z" transform="translate(-679.661 -809.772)" fill="#e6f1fe"/>
        </g>
      </g>
    </g>
    <g id="Grupo_133508" data-name="Grupo 133508" transform="translate(0.67 38.386)">
      <g id="Grupo_133507" data-name="Grupo 133507" style="isolation: isolate">
        <g id="Grupo_133505" data-name="Grupo 133505" transform="translate(0 14.025)">
          <path id="Trazado_196595" data-name="Trazado 196595" d="M728.853,813.393l-.023,8.162c-.011,3.585-2.366,7.163-7.072,9.9-9.472,5.5-24.876,5.5-34.41,0-4.8-2.77-7.194-6.407-7.184-10.038l.024-8.162c-.011,3.63,2.386,7.266,7.184,10.036,9.533,5.5,24.937,5.5,34.409,0C726.486,820.556,728.842,816.976,728.853,813.393Z" transform="translate(-680.163 -813.254)" fill="#1b3f5e"/>
          <g id="Grupo_133504" data-name="Grupo 133504" clip-path="url(#clip-path-2)">
            <g id="Grupo_133503" data-name="Grupo 133503" style="isolation: isolate">
              <path id="Trazado_196596" data-name="Trazado 196596" d="M720.006,813.358l-.023,8.162c-.011,3.585-2.366,7.163-7.072,9.9a28.141,28.141,0,0,1-6.2,2.61l.024-8.162a28.161,28.161,0,0,0,6.194-2.612c4.706-2.734,7.062-6.314,7.072-9.9Z" transform="translate(-671.317 -813.219)" fill="#1b3f5e"/>
              <path id="Trazado_196597" data-name="Trazado 196597" d="M709.349,822.741l-.024,8.162a39.126,39.126,0,0,1-10.439,1.515l.024-8.163a39.132,39.132,0,0,0,10.439-1.513Z" transform="translate(-673.925 -810.093)" fill="#1b3f5e"/>
              <path id="Trazado_196598" data-name="Trazado 196598" d="M703.527,825.012l-.024,8.163c-6.407.083-12.869-1.292-17.776-4.125-.239-.139-.473-.28-.7-.421l.023-8.163c.228.143.461.284.7.421,4.906,2.833,11.368,4.209,17.776,4.125Z" transform="translate(-678.543 -810.851)" fill="#1b3f5e"/>
              <path id="Trazado_196599" data-name="Trazado 196599" d="M686.4,821.816l-.023,8.163a14.907,14.907,0,0,1-5.39-5.4l.024-8.162a14.88,14.88,0,0,0,5.389,5.4Z" transform="translate(-679.889 -812.201)" fill="#1b3f5e"/>
              <path id="Trazado_196600" data-name="Trazado 196600" d="M681.282,817.468l-.024,8.162a8.83,8.83,0,0,1-1.094-4.214l.024-8.162a8.815,8.815,0,0,0,1.095,4.214Z" transform="translate(-680.163 -813.254)" fill="#1b3f5e"/>
            </g>
          </g>
        </g>
        <g id="Grupo_133506" data-name="Grupo 133506" transform="translate(0.024)">
          <path id="Trazado_196602" data-name="Trazado 196602" d="M721.665,806.863c9.533,5.5,9.581,14.428.109,19.932s-24.875,5.5-34.409,0-9.587-14.427-.115-19.932S712.13,801.358,721.665,806.863Z" transform="translate(-680.181 -802.734)" fill="#1b3f5e"/>
        </g>
      </g>
    </g>
    <g id="Grupo_133514" data-name="Grupo 133514" transform="translate(0 31.925)">
      <g id="Grupo_133513" data-name="Grupo 133513" style="isolation: isolate">
        <g id="Grupo_133511" data-name="Grupo 133511" transform="translate(0 14.424)">
          <path id="Trazado_196603" data-name="Trazado 196603" d="M729.715,808.85v5.658c-.011,3.686-2.434,7.367-7.275,10.18-9.741,5.662-25.583,5.662-35.39,0-4.934-2.849-7.4-6.588-7.388-10.323v-5.658c-.011,3.734,2.454,7.474,7.388,10.323,9.805,5.662,25.649,5.662,35.39,0C727.28,816.217,729.7,812.536,729.715,808.85Z" transform="translate(-679.661 -808.707)" fill="#d4e2fc"/>
          <g id="Grupo_133510" data-name="Grupo 133510" clip-path="url(#clip-path-3)">
            <g id="Grupo_133509" data-name="Grupo 133509" style="isolation: isolate">
              <path id="Trazado_196604" data-name="Trazado 196604" d="M720.616,808.814v5.658c-.011,3.686-2.434,7.367-7.275,10.18a28.867,28.867,0,0,1-6.37,2.685V821.68a28.939,28.939,0,0,0,6.37-2.686c4.841-2.813,7.264-6.494,7.275-10.18Z" transform="translate(-670.562 -808.671)" fill="#becef9"/>
              <path id="Trazado_196605" data-name="Trazado 196605" d="M709.654,818.465v5.657a40.229,40.229,0,0,1-10.737,1.557v-5.658a40.28,40.28,0,0,0,10.737-1.556Z" transform="translate(-673.246 -805.456)" fill="#cddcfb"/>
              <path id="Trazado_196606" data-name="Trazado 196606" d="M703.666,820.8v5.658c-6.59.085-13.236-1.328-18.283-4.242q-.37-.214-.721-.433v-5.658q.352.22.721.433c5.047,2.914,11.693,4.327,18.283,4.242Z" transform="translate(-677.995 -806.236)" fill="#dae8fd"/>
              <path id="Trazado_196607" data-name="Trazado 196607" d="M686.047,817.513v5.658a15.315,15.315,0,0,1-5.542-5.555v-5.658a15.315,15.315,0,0,0,5.542,5.555Z" transform="translate(-679.38 -807.624)" fill="#cddcfb"/>
              <path id="Trazado_196608" data-name="Trazado 196608" d="M680.786,813.041V818.7a9.086,9.086,0,0,1-1.125-4.334v-5.658a9.082,9.082,0,0,0,1.125,4.334Z" transform="translate(-679.661 -808.707)" fill="#cddcfb"/>
            </g>
          </g>
        </g>
        <g id="Grupo_133512" data-name="Grupo 133512">
          <path id="Trazado_196610" data-name="Trazado 196610" d="M722.328,802.134c9.806,5.661,9.855,14.838.112,20.5s-25.585,5.662-35.39,0-9.859-14.839-.117-20.5S712.521,796.472,722.328,802.134Z" transform="translate(-679.661 -797.888)" fill="#e6f1fe"/>
        </g>
      </g>
    </g>
    <g id="Grupo_133520" data-name="Grupo 133520" transform="translate(0.67 22.596)">
      <g id="Grupo_133519" data-name="Grupo 133519" style="isolation: isolate">
        <g id="Grupo_133517" data-name="Grupo 133517" transform="translate(0 14.023)">
          <path id="Trazado_196611" data-name="Trazado 196611" d="M728.853,801.548l-.023,8.163c-.011,3.583-2.366,7.163-7.072,9.9-9.472,5.5-24.876,5.5-34.41,0-4.8-2.77-7.194-6.406-7.184-10.037l.024-8.162c-.011,3.63,2.386,7.267,7.184,10.037,9.533,5.5,24.937,5.5,34.409,0C726.486,808.711,728.842,805.133,728.853,801.548Z" transform="translate(-680.163 -801.409)" fill="#1b3f5e"/>
          <g id="Grupo_133516" data-name="Grupo 133516" clip-path="url(#clip-path-4)">
            <g id="Grupo_133515" data-name="Grupo 133515" style="isolation: isolate">
              <path id="Trazado_196612" data-name="Trazado 196612" d="M720.006,801.513l-.023,8.163c-.011,3.583-2.366,7.163-7.072,9.9a28.153,28.153,0,0,1-6.2,2.612l.024-8.163a28.093,28.093,0,0,0,6.194-2.61c4.706-2.736,7.062-6.314,7.072-9.9Z" transform="translate(-671.317 -801.374)" fill="#1b3f5e"/>
              <path id="Trazado_196613" data-name="Trazado 196613" d="M709.349,810.9l-.024,8.163a39.123,39.123,0,0,1-10.439,1.513l.024-8.162a39.133,39.133,0,0,0,10.439-1.514Z" transform="translate(-673.925 -798.248)" fill="#1b3f5e"/>
              <path id="Trazado_196614" data-name="Trazado 196614" d="M703.527,813.168l-.024,8.162c-6.407.083-12.869-1.292-17.776-4.125-.239-.139-.473-.279-.7-.421l.023-8.162q.342.214.7.421c4.906,2.833,11.368,4.208,17.776,4.125Z" transform="translate(-678.543 -799.006)" fill="#1b3f5e"/>
              <path id="Trazado_196615" data-name="Trazado 196615" d="M686.4,809.972l-.023,8.162a14.9,14.9,0,0,1-5.39-5.4l.024-8.163a14.883,14.883,0,0,0,5.389,5.4Z" transform="translate(-679.889 -800.356)" fill="#1b3f5e"/>
              <path id="Trazado_196616" data-name="Trazado 196616" d="M681.282,805.623l-.024,8.163a8.835,8.835,0,0,1-1.094-4.216l.024-8.162a8.816,8.816,0,0,0,1.095,4.214Z" transform="translate(-680.163 -801.409)" fill="#1b3f5e"/>
            </g>
          </g>
        </g>
        <g id="Grupo_133518" data-name="Grupo 133518" transform="translate(0.024)">
          <path id="Trazado_196618" data-name="Trazado 196618" d="M721.665,795.017c9.533,5.5,9.581,14.429.109,19.933s-24.875,5.5-34.409,0-9.587-14.427-.115-19.932S712.13,789.514,721.665,795.017Z" transform="translate(-680.181 -790.89)" fill="#1b3f5e"/>
        </g>
      </g>
    </g>
    <g id="Grupo_133526" data-name="Grupo 133526" transform="translate(0 16.135)">
      <g id="Grupo_133525" data-name="Grupo 133525" style="isolation: isolate">
        <g id="Grupo_133523" data-name="Grupo 133523" transform="translate(0 14.423)">
          <path id="Trazado_196619" data-name="Trazado 196619" d="M729.715,797v5.658c-.011,3.686-2.434,7.368-7.275,10.18-9.741,5.662-25.583,5.662-35.39,0-4.934-2.849-7.4-6.588-7.388-10.323v-5.658c-.011,3.734,2.454,7.474,7.388,10.324,9.805,5.661,25.649,5.661,35.39,0C727.28,804.373,729.7,800.692,729.715,797Z" transform="translate(-679.661 -796.862)" fill="#d4e2fc"/>
          <g id="Grupo_133522" data-name="Grupo 133522" clip-path="url(#clip-path-5)">
            <g id="Grupo_133521" data-name="Grupo 133521" style="isolation: isolate">
              <path id="Trazado_196620" data-name="Trazado 196620" d="M720.616,796.969v5.658c-.011,3.686-2.434,7.368-7.275,10.18a28.934,28.934,0,0,1-6.37,2.686v-5.658a28.946,28.946,0,0,0,6.37-2.685c4.841-2.813,7.264-6.494,7.275-10.181Z" transform="translate(-670.562 -796.826)" fill="#becef9"/>
              <path id="Trazado_196621" data-name="Trazado 196621" d="M709.654,806.62v5.658a40.286,40.286,0,0,1-10.737,1.557v-5.658a40.234,40.234,0,0,0,10.737-1.557Z" transform="translate(-673.246 -793.611)" fill="#cddcfb"/>
              <path id="Trazado_196622" data-name="Trazado 196622" d="M703.666,808.957v5.658c-6.59.085-13.236-1.329-18.283-4.244-.247-.141-.487-.287-.721-.433V804.28q.352.22.721.435c5.047,2.913,11.693,4.327,18.283,4.242Z" transform="translate(-677.995 -794.391)" fill="#dae8fd"/>
              <path id="Trazado_196623" data-name="Trazado 196623" d="M686.047,805.668v5.658a15.315,15.315,0,0,1-5.542-5.555v-5.657a15.323,15.323,0,0,0,5.542,5.554Z" transform="translate(-679.38 -795.779)" fill="#cddcfb"/>
              <path id="Trazado_196624" data-name="Trazado 196624" d="M680.786,801.2v5.657a9.078,9.078,0,0,1-1.125-4.334v-5.658a9.087,9.087,0,0,0,1.125,4.336Z" transform="translate(-679.661 -796.862)" fill="#cddcfb"/>
            </g>
          </g>
        </g>
        <g id="Grupo_133524" data-name="Grupo 133524">
          <path id="Trazado_196626" data-name="Trazado 196626" d="M722.328,790.289c9.806,5.662,9.855,14.839.112,20.5s-25.585,5.661-35.39,0-9.859-14.84-.117-20.5S712.521,784.628,722.328,790.289Z" transform="translate(-679.661 -786.044)" fill="#e6f1fe"/>
        </g>
      </g>
    </g>
    <g id="Grupo_133532" data-name="Grupo 133532" transform="translate(0.67 6.462)">
      <g id="Grupo_133531" data-name="Grupo 133531" style="isolation: isolate">
        <g id="Grupo_133529" data-name="Grupo 133529" transform="translate(0 14.024)">
          <path id="Trazado_196627" data-name="Trazado 196627" d="M728.853,789.446l-.023,8.163c-.011,3.584-2.366,7.163-7.072,9.9-9.472,5.5-24.876,5.5-34.41,0-4.8-2.77-7.194-6.406-7.184-10.037l.024-8.162c-.011,3.63,2.386,7.267,7.184,10.037,9.533,5.5,24.937,5.5,34.409,0C726.486,796.609,728.842,793.031,728.853,789.446Z" transform="translate(-680.163 -789.307)" fill="#1b3f5e"/>
          <g id="Grupo_133528" data-name="Grupo 133528" clip-path="url(#clip-path-6)">
            <g id="Grupo_133527" data-name="Grupo 133527" style="isolation: isolate">
              <path id="Trazado_196628" data-name="Trazado 196628" d="M720.006,789.411l-.023,8.163c-.011,3.584-2.366,7.163-7.072,9.9a28.144,28.144,0,0,1-6.2,2.612l.024-8.163a28.158,28.158,0,0,0,6.194-2.61c4.706-2.736,7.062-6.314,7.072-9.9Z" transform="translate(-671.317 -789.272)" fill="#1b3f5e"/>
              <path id="Trazado_196629" data-name="Trazado 196629" d="M709.349,798.794l-.024,8.163a39.174,39.174,0,0,1-10.439,1.513l.024-8.162a39.133,39.133,0,0,0,10.439-1.514Z" transform="translate(-673.925 -786.146)" fill="#1b3f5e"/>
              <path id="Trazado_196630" data-name="Trazado 196630" d="M703.527,801.066l-.024,8.162c-6.407.083-12.869-1.292-17.776-4.125-.239-.139-.473-.279-.7-.421l.023-8.163q.342.214.7.423c4.906,2.833,11.368,4.207,17.776,4.125Z" transform="translate(-678.543 -786.904)" fill="#1b3f5e"/>
              <path id="Trazado_196631" data-name="Trazado 196631" d="M686.4,797.869l-.023,8.163a14.9,14.9,0,0,1-5.39-5.4l.024-8.162a14.869,14.869,0,0,0,5.389,5.4Z" transform="translate(-679.889 -788.254)" fill="#1b3f5e"/>
              <path id="Trazado_196632" data-name="Trazado 196632" d="M681.282,793.521l-.024,8.162a8.83,8.83,0,0,1-1.094-4.214l.024-8.162a8.816,8.816,0,0,0,1.095,4.214Z" transform="translate(-680.163 -789.307)" fill="#1b3f5e"/>
            </g>
          </g>
        </g>
        <g id="Grupo_133530" data-name="Grupo 133530" transform="translate(0.024)">
          <path id="Trazado_196634" data-name="Trazado 196634" d="M721.665,782.916c9.533,5.5,9.581,14.429.109,19.933s-24.875,5.5-34.409,0-9.587-14.429-.115-19.933S712.13,777.412,721.665,782.916Z" transform="translate(-680.181 -778.788)" fill="#1b3f5e"/>
        </g>
      </g>
    </g>
    <g id="Grupo_133540" data-name="Grupo 133540">
      <g id="Grupo_133539" data-name="Grupo 133539" style="isolation: isolate">
        <g id="Grupo_133535" data-name="Grupo 133535" transform="translate(0 14.424)">
          <path id="Trazado_196635" data-name="Trazado 196635" d="M729.715,784.9v5.658c-.011,3.686-2.434,7.367-7.275,10.18-9.741,5.662-25.583,5.662-35.39,0-4.934-2.849-7.4-6.589-7.388-10.323V784.76c-.011,3.734,2.454,7.474,7.388,10.324,9.805,5.661,25.649,5.661,35.39,0C727.28,792.271,729.7,788.59,729.715,784.9Z" transform="translate(-679.661 -784.76)" fill="#d4e2fc"/>
          <g id="Grupo_133534" data-name="Grupo 133534" clip-path="url(#clip-path-7)">
            <g id="Grupo_133533" data-name="Grupo 133533" style="isolation: isolate">
              <path id="Trazado_196636" data-name="Trazado 196636" d="M720.616,784.867v5.658c-.011,3.686-2.434,7.367-7.275,10.18a28.939,28.939,0,0,1-6.37,2.686v-5.658a28.875,28.875,0,0,0,6.37-2.686c4.841-2.812,7.264-6.492,7.275-10.18Z" transform="translate(-670.562 -784.724)" fill="#becef9"/>
              <path id="Trazado_196637" data-name="Trazado 196637" d="M709.654,794.518v5.658a40.286,40.286,0,0,1-10.737,1.557v-5.658a40.278,40.278,0,0,0,10.737-1.557Z" transform="translate(-673.246 -781.509)" fill="#cddcfb"/>
              <path id="Trazado_196638" data-name="Trazado 196638" d="M703.666,796.855v5.658c-6.59.085-13.236-1.329-18.283-4.243-.247-.141-.487-.287-.721-.433v-5.658q.352.22.721.435c5.047,2.913,11.693,4.327,18.283,4.242Z" transform="translate(-677.995 -782.289)" fill="#dae8fd"/>
              <path id="Trazado_196639" data-name="Trazado 196639" d="M686.047,793.566v5.658a15.314,15.314,0,0,1-5.542-5.555v-5.658a15.313,15.313,0,0,0,5.542,5.555Z" transform="translate(-679.38 -783.677)" fill="#cddcfb"/>
              <path id="Trazado_196640" data-name="Trazado 196640" d="M680.786,789.094v5.658a9.078,9.078,0,0,1-1.125-4.334V784.76a9.078,9.078,0,0,0,1.125,4.334Z" transform="translate(-679.661 -784.76)" fill="#cddcfb"/>
            </g>
          </g>
        </g>
        <g id="Grupo_133538" data-name="Grupo 133538">
          <path id="Trazado_196642" data-name="Trazado 196642" d="M722.328,778.187c9.806,5.662,9.855,14.84.112,20.5s-25.585,5.662-35.39,0-9.859-14.839-.117-20.5S712.521,772.525,722.328,778.187Z" transform="translate(-679.661 -773.941)" fill="#e6f1fe"/>
          <path id="Trazado_196643" data-name="Trazado 196643" d="M719.323,779.728c8.574,4.345,8.616,11.39.1,15.737s-22.368,4.346-30.941,0-8.619-11.391-.1-15.737S710.751,775.382,719.323,779.728Z" transform="translate(-678.874 -773.099)" fill="#dae8fd"/>
          <g id="Grupo_133536" data-name="Grupo 133536" transform="translate(2.527 2.527)">
            <path id="Trazado_196644" data-name="Trazado 196644" d="M720.434,779.745a33.461,33.461,0,0,0-16.461-3.909c-6.155,0-12.136,1.421-16.4,3.9-3.827,2.222-6.019,5.149-6.015,8.024,0,.14.007.28.019.42.2,2.77,2.405,5.549,6.1,7.686a33.515,33.515,0,0,0,16.457,3.9c6.155,0,12.136-1.421,16.4-3.9,3.641-2.11,5.8-4.865,6-7.6a3.76,3.76,0,0,0,.02-.424C726.554,784.94,724.32,781.987,720.434,779.745Zm4.181,8.946c0,2.164-1.837,4.475-5.051,6.346-3.983,2.312-9.605,3.641-15.427,3.641a31.541,31.541,0,0,1-15.485-3.65c-3.272-1.888-5.149-4.231-5.153-6.422a3.632,3.632,0,0,1,.024-.416v-.012a3.547,3.547,0,0,1-.024-.412c0-2.168,1.839-4.481,5.047-6.346,3.984-2.312,9.607-3.641,15.427-3.641a31.512,31.512,0,0,1,15.489,3.649c3.273,1.888,5.149,4.227,5.153,6.419a3.66,3.66,0,0,1-.023.416v.016A3.542,3.542,0,0,1,724.615,788.69Z" transform="translate(-681.556 -775.836)" fill="#98a4e0"/>
          </g>
          <g id="Grupo_133537" data-name="Grupo 133537" transform="translate(2.545 3.369)">
            <path id="Trazado_196645" data-name="Trazado 196645" d="M720.429,780.373a33.519,33.519,0,0,0-16.461-3.9c-6.155,0-12.136,1.422-16.4,3.9-3.641,2.114-5.8,4.87-6,7.606.2,2.77,2.405,5.549,6.1,7.686a33.515,33.515,0,0,0,16.456,3.9c6.155,0,12.136-1.421,16.4-3.9,3.641-2.11,5.8-4.865,6-7.6C726.332,785.29,724.129,782.51,720.429,780.373Zm-.871,14.453c-3.983,2.312-9.605,3.641-15.427,3.641a31.542,31.542,0,0,1-15.485-3.65c-3.272-1.888-5.149-4.231-5.153-6.422a3.631,3.631,0,0,1,.024-.416v-.012a3.547,3.547,0,0,1-.024-.412c0-2.168,1.838-4.481,5.047-6.346,3.983-2.312,9.607-3.641,15.427-3.641a31.512,31.512,0,0,1,15.489,3.649c3.273,1.888,5.149,4.227,5.153,6.419a3.659,3.659,0,0,1-.023.416v.016a3.543,3.543,0,0,1,.023.412C724.614,790.643,722.773,792.955,719.558,794.826Z" transform="translate(-681.57 -776.468)" fill="#1b3f5e"/>
          </g>
        </g>
      </g>
    </g>
  </g>
</svg>
