<svg id="Grupo_135267" data-name="Grupo 135267" xmlns="http://www.w3.org/2000/svg" width="124.798" height="143.192" viewBox="0 0 124.798 143.192">
  <g id="Grupo_135267-2" data-name="Grupo 135267" transform="translate(91.559 14.198)" style="mix-blend-mode: overlay;isolation: isolate">
    <path id="Trazado_198352" data-name="Trazado 198352" d="M502.589,627.964l-1.168.673a3.322,3.322,0,0,0-.444-1.076l.868-1.5c.347-.6.347-1.249,0-1.449l-.4-.228c-.345-.2-.908.124-1.255.724l-.825,1.429a3.039,3.039,0,0,0-1.129.073v-1.417c0-.565-.4-.795-.888-.512l-.56.324a1.961,1.961,0,0,0-.887,1.536v1.349a9.285,9.285,0,0,0-1.154,1.177l-.868-.5c-.345-.2-.908.124-1.255.724l-.4.687c-.347.6-.347,1.248,0,1.448l.825.477a9.748,9.748,0,0,0-.5,1.594l-1.227.708a1.959,1.959,0,0,0-.888,1.536v.648c0,.565.4.795.888.512l1.167-.675a3.33,3.33,0,0,0,.444,1.077l-.868,1.5c-.345.6-.345,1.248,0,1.448l.4.229c.347.2.908-.124,1.255-.724l.825-1.43a3.037,3.037,0,0,0,1.129-.072v1.417c0,.565.4.795.888.512l.56-.324a1.961,1.961,0,0,0,.887-1.536v-1.349a9.21,9.21,0,0,0,1.155-1.179l.868.5c.347.2.908-.124,1.255-.724l.4-.687c.347-.6.347-1.249,0-1.449l-.825-.476a9.747,9.747,0,0,0,.5-1.594l1.228-.708a1.964,1.964,0,0,0,.887-1.537v-.647C503.475,627.909,503.078,627.681,502.589,627.964Zm-5.63,6.994c-1.209.7-2.189.132-2.189-1.262a4.839,4.839,0,0,1,2.189-3.792c1.208-.7,2.188-.132,2.188,1.264A4.837,4.837,0,0,1,496.959,634.958Z" transform="translate(-490.441 -614.632)" fill="#fff"/>
    <path id="Trazado_198353" data-name="Trazado 198353" d="M508.949,621.79l-.892.515a2.526,2.526,0,0,0-.339-.823l.663-1.148c.264-.457.264-.953,0-1.107l-.3-.175c-.265-.152-.695.095-.959.553l-.631,1.093a2.335,2.335,0,0,0-.864.055v-1.083c0-.432-.3-.607-.677-.391l-.428.247a1.5,1.5,0,0,0-.679,1.174v1.029a7.15,7.15,0,0,0-.881.9l-.663-.383c-.265-.153-.695.095-.959.553l-.3.524c-.265.459-.265.955,0,1.107l.631.364a7.441,7.441,0,0,0-.384,1.219l-.937.541a1.5,1.5,0,0,0-.679,1.174v.493c0,.433.3.608.679.392l.892-.515a2.526,2.526,0,0,0,.339.823l-.663,1.148c-.264.457-.264.953,0,1.107l.3.175c.265.152.695-.095.959-.553l.631-1.093a2.3,2.3,0,0,0,.864-.055v1.083c0,.432.3.607.677.391l.428-.247a1.5,1.5,0,0,0,.679-1.174v-1.029a7.147,7.147,0,0,0,.881-.9l.663.383c.265.153.693-.095.959-.553l.3-.524c.265-.459.265-.955,0-1.107l-.631-.364a7.4,7.4,0,0,0,.384-1.219l.937-.541a1.5,1.5,0,0,0,.677-1.175v-.493C509.626,621.749,509.323,621.574,508.949,621.79Zm-4.3,5.345c-.923.533-1.672.1-1.672-.965a3.7,3.7,0,0,1,1.672-2.9c.924-.533,1.673-.1,1.673.965A3.7,3.7,0,0,1,504.646,627.135Z" transform="translate(-487.367 -616.403)" fill="#fff"/>
    <path id="Trazado_198354" data-name="Trazado 198354" d="M501.441,624.629l-.233-.636a6.8,6.8,0,0,0,.571-.889l.671-.015c.267-.007.588-.321.717-.705l.147-.439c.128-.383.016-.688-.252-.682l-.637.015a4.091,4.091,0,0,0,.06-.9l.7-.689a1.066,1.066,0,0,0,.329-.981l-.113-.305c-.1-.267-.4-.26-.684.015l-.668.656a1.347,1.347,0,0,0-.485-.379l.323-.96c.128-.384.015-.689-.252-.682l-.307.007c-.267.005-.588.321-.717.7l-.307.913a3.237,3.237,0,0,0-.747.361l-.245-.668c-.1-.267-.405-.26-.685.015l-.321.315a1.066,1.066,0,0,0-.329.981l.235.636a6.679,6.679,0,0,0-.571.891l-.671.015c-.268.005-.588.321-.717.7l-.147.439c-.129.384-.016.689.251.684l.639-.015a4.169,4.169,0,0,0-.061.9l-.7.689a1.061,1.061,0,0,0-.329.981l.112.305c.1.267.405.26.685-.016l.668-.656a1.326,1.326,0,0,0,.485.38l-.323.96c-.128.383-.016.688.252.683l.305-.007c.268-.007.589-.321.717-.705l.307-.913a3.23,3.23,0,0,0,.747-.36l.247.668c.1.267.405.26.685-.016l.32-.315A1.061,1.061,0,0,0,501.441,624.629Zm-2.982-1.244a2.62,2.62,0,0,1,.812-2.421c.692-.678,1.448-.7,1.69-.037a2.62,2.62,0,0,1-.813,2.421C499.458,624.026,498.7,624.044,498.459,623.385Z" transform="translate(-488.631 -617.054)" fill="#fff"/>
  </g>
  <path id="Trazado_198355" data-name="Trazado 198355" d="M437.341,691.981v9.094A4.24,4.24,0,0,0,435.2,702.5c-1.244,1.352-1.953,3.053-1.585,3.8s1.673.259,2.916-1.093a5.688,5.688,0,0,0,1.677-3.366l0,0v-9.727l5.2-5.658V697.57A4.237,4.237,0,0,0,441.27,699c-1.243,1.352-1.952,3.054-1.584,3.8s1.672.26,2.916-1.092a5.6,5.6,0,0,0,1.674-3.412l.007-.005V684.43Z" transform="translate(-417.847 -580.409)" fill="#fff" style="mix-blend-mode: overlay;isolation: isolate"/>
  <g id="Grupo_135271" data-name="Grupo 135271" transform="translate(71.186 40.682)" style="mix-blend-mode: overlay;isolation: isolate">
    <g id="Grupo_135270" data-name="Grupo 135270">
      <g id="Grupo_135269" data-name="Grupo 135269">
        <path id="Trazado_198356" data-name="Trazado 198356" d="M479.08,646.253a2.927,2.927,0,0,1,1.163-1.447c.5-.287.929-.224,1.161.105a1.145,1.145,0,0,1,.181.669,2.976,2.976,0,0,1-1.342,2.328c-.741.428-1.344.08-1.344-.776A2.467,2.467,0,0,1,479.08,646.253Z" transform="translate(-473.913 -634.352)" fill="#fff"/>
        <g id="Grupo_135268" data-name="Grupo 135268">
          <path id="Trazado_198357" data-name="Trazado 198357" d="M487.817,637.519l-.664,1.15c-1.452-.839-3.454-.723-5.665.555a16.362,16.362,0,0,0-5.665,5.987l-.665-.384a18.3,18.3,0,0,1,6.329-6.69C483.958,636.711,486.2,636.582,487.817,637.519Z" transform="translate(-475.159 -636.919)" fill="#fff"/>
          <path id="Trazado_198358" data-name="Trazado 198358" d="M485.32,640.068l-.665,1.152a3.636,3.636,0,0,0-3.665.357,10.606,10.606,0,0,0-3.666,3.875l-.665-.384a12.54,12.54,0,0,1,4.331-4.578C482.679,639.517,484.21,639.427,485.32,640.068Z" transform="translate(-474.66 -636.007)" fill="#fff"/>
          <path id="Trazado_198359" data-name="Trazado 198359" d="M482.818,642.621l-.664,1.15a1.647,1.647,0,0,0-1.665.161,4.8,4.8,0,0,0-1.666,1.762l-.664-.384a6.721,6.721,0,0,1,2.33-2.465A2.305,2.305,0,0,1,482.818,642.621Z" transform="translate(-474.16 -635.094)" fill="#fff"/>
        </g>
      </g>
    </g>
  </g>
  <g id="Grupo_135272" data-name="Grupo 135272" transform="translate(9.095 67.303)" style="mix-blend-mode: overlay;isolation: isolate">
    <path id="Trazado_198360" data-name="Trazado 198360" d="M428.585,688.084l18.011-10.4v-20.8l-18.011,10.4Z" transform="translate(-428.585 -656.888)" fill="#fff" opacity="0.5"/>
    <path id="Trazado_198361" data-name="Trazado 198361" d="M432.211,674.618l4.11,2.6,6.527-12.841,3.747,5.474v5.344l-18.011,10.4v-5.2Z" transform="translate(-428.585 -654.394)" fill="#fff"/>
    <path id="Trazado_198362" data-name="Trazado 198362" d="M431.305,668.539a5.348,5.348,0,0,1,2.417-4.187c1.336-.771,2.418-.145,2.418,1.4a5.341,5.341,0,0,1-2.418,4.188C432.388,670.705,431.305,670.081,431.305,668.539Z" transform="translate(-427.678 -654.512)" fill="#fff"/>
  </g>
  <g id="Grupo_135274" data-name="Grupo 135274" transform="translate(42.667 21.224)" style="mix-blend-mode: overlay;isolation: isolate">
    <path id="Trazado_198363" data-name="Trazado 198363" d="M453.768,662.061l18.565-10.718V622.324l-18.565,10.718Z" transform="translate(-453.767 -622.324)" fill="#fff" opacity="0.5"/>
    <path id="Trazado_198364" data-name="Trazado 198364" d="M456.328,635.448l11.738-6.777v-3.6l-11.738,6.777Z" transform="translate(-452.914 -621.408)" fill="#fff"/>
    <g id="Grupo_135273" data-name="Grupo 135273" transform="translate(1.424 8.207)">
      <path id="Trazado_198365" data-name="Trazado 198365" d="M454.836,639.554l15.718-9.074v-2l-15.718,9.075Z" transform="translate(-454.836 -628.48)" fill="#fff"/>
      <path id="Trazado_198366" data-name="Trazado 198366" d="M454.836,642.253l15.718-9.075v-2l-15.718,9.074Z" transform="translate(-454.836 -627.581)" fill="#fff"/>
      <path id="Trazado_198367" data-name="Trazado 198367" d="M454.836,644.951l15.718-9.074v-2l-15.718,9.074Z" transform="translate(-454.836 -626.682)" fill="#fff"/>
      <path id="Trazado_198368" data-name="Trazado 198368" d="M454.836,647.65l15.718-9.075v-2l-15.718,9.074Z" transform="translate(-454.836 -625.783)" fill="#fff"/>
      <path id="Trazado_198369" data-name="Trazado 198369" d="M454.836,650.349l15.718-9.074v-2l-15.718,9.074Z" transform="translate(-454.836 -624.884)" fill="#fff"/>
      <path id="Trazado_198370" data-name="Trazado 198370" d="M457.7,650.84l11.894-6.867v-2L457.7,648.841Z" transform="translate(-453.88 -623.984)" fill="#fff"/>
    </g>
  </g>
  <g id="Grupo_135275" data-name="Grupo 135275" transform="translate(39.059 76.811)" style="mix-blend-mode: overlay;isolation: isolate">
    <path id="Trazado_198371" data-name="Trazado 198371" d="M451.061,693.875l19.368-11.182v-17.8l-7.713,4.453-1.738,3.545-9.916,5.725Z" transform="translate(-451.061 -663.73)" fill="#fff" opacity="0.5"/>
    <path id="Trazado_198372" data-name="Trazado 198372" d="M451.406,674.658l18.426-10.638v1.44l-7.232,4.175-1.739,3.547-9.455,5.459Z" transform="translate(-450.946 -664.02)" fill="#fff" opacity="0.8"/>
  </g>
  <g id="Grupo_135276" data-name="Grupo 135276" transform="translate(72.486 6.447)" style="mix-blend-mode: overlay;isolation: isolate">
    <path id="Trazado_198373" data-name="Trazado 198373" d="M476.134,619.934v4.849c0,.823.579,1.157,1.292.745l5.121-2.957a2.851,2.851,0,0,0,1.29-2.236v-4.847c0-.547-.255-.875-.633-.916v-1.035c0-2.049-1.444-2.884-3.218-1.858a7.122,7.122,0,0,0-3.218,5.574v1.036A2.81,2.81,0,0,0,476.134,619.934Zm6.1-5.837v.824l-4.5,2.6v-.824a4.977,4.977,0,0,1,2.249-3.9C481.225,612.083,482.235,612.664,482.235,614.1Zm-3.353,6.377a2.441,2.441,0,0,1,1.1-1.912c.611-.352,1.1-.067,1.1.637a2.36,2.36,0,0,1-.464,1.3v1.474l-1.28.739v-1.473C479.066,621.171,478.882,620.9,478.882,620.473Z" transform="translate(-476.134 -611.24)" fill="#fff"/>
  </g>
  <g id="Grupo_135277" data-name="Grupo 135277" transform="translate(70.004 59.02)" style="mix-blend-mode: overlay;isolation: isolate">
    <path id="Trazado_198374" data-name="Trazado 198374" d="M474.273,676.4l18.505-10.684V650.675l-18.505,10.684Z" transform="translate(-474.273 -650.675)" fill="#fff" opacity="0.5"/>
    <path id="Trazado_198375" data-name="Trazado 198375" d="M492.778,650.675l-18.505,10.684,9.253,3.348Z" transform="translate(-474.273 -650.675)" fill="#fff" opacity="0.5"/>
  </g>
  <g id="Grupo_135286" data-name="Grupo 135286" transform="translate(19.405 34.016)" style="mix-blend-mode: overlay;isolation: isolate">
    <g id="Grupo_135281" data-name="Grupo 135281" transform="translate(1.826)">
      <g id="Grupo_135278" data-name="Grupo 135278">
        <path id="Trazado_198376" data-name="Trazado 198376" d="M451.6,637.125a1.718,1.718,0,0,0,.34-.261,2.127,2.127,0,0,0,.672-1.948,4.208,4.208,0,0,0-5.539-2.772c-3.814,1.053-7.724,5.5-9.3,10.576-.236.759.011,1.343.551,1.3a2,2,0,0,0,1.405-1.448c1.152-3.713,4.014-6.967,6.806-7.738a3.08,3.08,0,0,1,4.054,2.03C450.742,637.3,451.158,637.382,451.6,637.125Z" transform="translate(-437.688 -631.919)" fill="#ecf5fe"/>
      </g>
      <g id="Grupo_135280" data-name="Grupo 135280" transform="translate(11.027 1.706)">
        <g id="Grupo_135279" data-name="Grupo 135279">
          <path id="Trazado_198377" data-name="Trazado 198377" d="M451.277,633.2l-2.727,6.847-2.591-3.867Z" transform="translate(-445.959 -633.199)" fill="#ecf5fe"/>
        </g>
      </g>
    </g>
    <g id="Grupo_135285" data-name="Grupo 135285" transform="translate(0 10.085)">
      <g id="Grupo_135282" data-name="Grupo 135282" transform="translate(1.355)">
        <path id="Trazado_198378" data-name="Trazado 198378" d="M444.942,649.957a17.626,17.626,0,0,0,7.106-9.082c.269-.761.063-1.384-.461-1.392s-1.167.6-1.436,1.361c-1.235,3.487-4.032,6.544-6.65,7.268A3.082,3.082,0,0,1,439.419,646c-.18-.544-.78-.556-1.341-.025a2.15,2.15,0,0,0-.692,1.948,4.212,4.212,0,0,0,5.577,2.886A8.56,8.56,0,0,0,444.942,649.957Z" transform="translate(-437.335 -639.484)" fill="#ecf5fe"/>
      </g>
      <g id="Grupo_135284" data-name="Grupo 135284" transform="translate(0 3.114)">
        <g id="Grupo_135283" data-name="Grupo 135283">
          <path id="Trazado_198379" data-name="Trazado 198379" d="M436.318,648.686l2.322-6.866,2.984,3.361Z" transform="translate(-436.318 -641.82)" fill="#ecf5fe"/>
        </g>
      </g>
    </g>
  </g>
  <g id="Grupo_135287" data-name="Grupo 135287" style="mix-blend-mode: overlay;isolation: isolate">
    <path id="Trazado_198380" data-name="Trazado 198380" d="M468.385,656.878l1.89-1.091V653.6l-1.89,1.091Z" transform="translate(-406.23 -590.679)" fill="#eff6fe"/>
    <path id="Trazado_198381" data-name="Trazado 198381" d="M513.956,629.892l1.89-1.091v-2.182l-1.89,1.091Z" transform="translate(-391.047 -599.67)" fill="#eff6fe"/>
    <path id="Trazado_198382" data-name="Trazado 198382" d="M489.125,609.678l1.89-1.091V606.4l-1.89,1.091Z" transform="translate(-399.32 -606.404)" fill="#eff6fe" opacity="0.3"/>
    <path id="Trazado_198383" data-name="Trazado 198383" d="M421.763,694.2l1.89-1.091v-2.183l-1.89,1.091Z" transform="translate(-421.763 -578.244)" fill="#eff6fe"/>
    <path id="Trazado_198384" data-name="Trazado 198384" d="M455.619,692.528l1.89-1.091v-2.182l-1.89,1.091Z" transform="translate(-410.483 -578.802)" fill="#eff6fe" opacity="0.5"/>
    <path id="Trazado_198385" data-name="Trazado 198385" d="M441.519,679.973l1.89-1.091V676.7l-1.89,1.091Z" transform="translate(-415.181 -582.985)" fill="#eff6fe" opacity="0.3"/>
    <path id="Trazado_198386" data-name="Trazado 198386" d="M449.593,648.833l1.89-1.091v-2.183l-1.89,1.091Z" transform="translate(-412.491 -593.359)" fill="#eff6fe" opacity="0.1"/>
    <path id="Trazado_198387" data-name="Trazado 198387" d="M451.437,711.593l-2.03.8-.322,2.159,2.03-.8Z" transform="translate(-412.66 -571.36)" fill="#eff6fe"/>
  </g>
</svg>
